<svg width="103" height="22" viewBox="0 0 103 22" fill="none" xmlns="http://www.w3.org/2000/svg">
<path d="M99.557 0.918945H103L99.2008 21.0085H95.7578L99.557 0.918945Z" fill="#9F9F92"/>
<path d="M89.2973 15.2857H83.0049L80.2742 21.0085H76.5938L86.626 0.918945H90.9595L93.4824 21.0085H89.8613L89.2973 15.2857ZM84.1031 12.6031H89.0896L88.5256 7.59559C88.4366 6.52256 88.3179 4.97262 88.2288 3.78037H88.1694C87.6352 5.00243 87.1009 6.40333 86.537 7.59559L84.1031 12.6031Z" fill="#9F9F92"/>
<path d="M65.6875 20.2632L66.5779 17.7893C67.32 18.2066 68.7447 18.7431 70.0507 18.7431C71.4457 18.7431 72.2767 17.9383 72.2767 16.9547C72.2767 16.0605 71.8018 15.4644 70.3771 14.7192C68.715 13.8251 67.5277 12.603 67.5277 10.9338C67.5277 8.13202 69.9616 6.16479 73.375 6.16479C74.8887 6.16479 76.1353 6.52247 76.7586 6.90996L75.8979 9.4137C75.3339 9.11563 74.3841 8.75796 73.1969 8.75796C71.8909 8.75796 71.0005 9.4435 71.0005 10.4271C71.0005 11.2617 71.6238 11.828 72.8704 12.454C74.4732 13.3183 75.8682 14.5106 75.8682 16.3586C75.8682 19.5777 73.1969 21.3661 69.7242 21.3363C68.0323 21.3065 66.4592 20.8296 65.6875 20.2632Z" fill="#9F9F92"/>
<path d="M63.0274 17.6403L63.3539 20.1738C61.9292 20.919 60 21.3363 58.2488 21.3363C54.2418 21.3363 52.3125 18.8623 52.3125 15.3154C52.3125 10.9338 55.5181 6.16479 60.5045 6.16479C63.3539 6.16479 65.1645 7.80415 65.1645 10.2483C65.1645 13.9741 61.2762 15.1663 55.6962 15.0471C55.6368 15.5538 55.7555 16.5374 56.082 17.1038C56.646 18.0874 57.6848 18.5941 59.0502 18.5941C60.6826 18.5941 61.9886 18.1768 63.0274 17.6403ZM61.8996 10.2483C61.8996 9.32428 61.1575 8.75796 60.0593 8.75796C57.8926 8.75796 56.4679 10.6954 56.0523 12.454C59.6141 12.4838 61.8996 12.0069 61.8996 10.2483Z" fill="#9F9F92"/>
<path d="M32.1641 20.8295L35.8742 1.18707C37.5067 0.918808 39.2876 0.769775 41.1575 0.769775C44.3631 0.769775 46.886 1.57455 48.4888 3.15429C49.8541 4.40616 50.7742 6.31378 50.7742 9.08578C50.7742 12.8712 49.2308 16.3287 46.7079 18.4152C44.3928 20.3228 41.4543 21.1574 37.3583 21.1574C35.2509 21.1574 33.292 21.0084 32.1641 20.8295ZM38.872 3.75042L36.1414 18.2065C36.824 18.296 37.5661 18.3258 38.3378 18.3258C41.0388 18.3258 43.2055 17.4614 44.6599 15.822C46.233 14.1529 47.0344 11.7684 47.0344 9.14539C47.0344 5.80706 45.2832 3.57158 41.0981 3.57158C40.2967 3.57158 39.436 3.6312 38.872 3.75042Z" fill="#9F9F92"/>
<g clip-path="url(#clip0_16024_119)">
<path d="M25.4654 3.36039C25.328 2.61295 24.6124 2.16449 23.9139 2.40022C23.7994 2.45771 20.7535 3.53287 17.7992 5.17148C16.3621 2.99817 14.9193 1.27331 14.6044 0.905341C14.1292 0.364886 13.2303 0.364886 12.8124 0.905341C12.4975 1.25031 11.0261 3.00392 9.57181 5.22323C6.60034 3.61336 3.55444 2.52096 3.38268 2.40597C2.71281 2.16449 1.94561 2.5612 1.8311 3.36039C1.71087 4.37805 0.399756 13.1288 2.60975 16.843C4.28156 19.7178 7.02401 21.3966 9.77219 21.3966C10.2245 21.3966 11.2207 21.2816 11.7875 21.0919C12.028 21.1666 12.2685 21.2356 12.5204 21.2816L11.7875 21.0919C11.7875 21.7531 13.0586 21.3966 13.7113 21.3966C14.3697 21.3966 15.6922 21.7301 15.6922 21.0746L14.9021 21.2816C15.1712 21.2299 15.4346 21.1609 15.6922 21.0746C16.3564 21.3334 17.1637 21.3966 17.6503 21.3966C20.3355 21.3966 23.1982 19.7178 24.7498 16.9005C26.9598 13.1288 25.6544 4.3723 25.4654 3.36039ZM13.7113 3.47538C15.6235 5.93042 18.6637 10.369 18.6637 12.8816C18.6637 16.2968 16.4537 19.0566 13.7113 19.0566C10.9688 19.0566 8.7588 16.3026 8.7588 12.8816C8.7588 10.369 11.799 5.93617 13.7113 3.47538ZM4.5163 15.7046C3.26817 13.4853 3.56589 8.21298 3.92086 5.15423C5.06594 5.5912 6.70912 6.32714 8.34658 7.22981C7.27021 9.1559 6.42858 11.2085 6.42858 12.8873C6.42858 15.2504 7.27021 17.4007 8.61567 18.9473C7.04692 18.5679 5.50106 17.3892 4.5163 15.7046ZM22.7802 15.7046C21.8127 17.3375 20.3641 18.4701 18.8641 18.8783C20.1752 17.3375 20.9882 15.2159 20.9882 12.8873C20.9882 11.1912 20.1237 9.1214 19.0301 7.17807C20.6046 6.30414 22.2535 5.58545 23.3757 5.15423C23.7364 8.27047 24.0341 13.5428 22.7802 15.7046Z" fill="#9F9F92"/>
</g>
<defs>
<clipPath id="clip0_16024_119">
<rect width="27.6576" height="21" fill="white" transform="translate(0 0.5)"/>
</clipPath>
</defs>
</svg>
