<svg width="24" height="24" viewBox="0 0 24 24" fill="none" xmlns="http://www.w3.org/2000/svg">
<path d="M3.4975 20.5C4.3275 21.33 5.6675 21.33 6.4975 20.5L19.4975 7.5C20.3275 6.67 20.3275 5.33 19.4975 4.5C18.6675 3.67 17.3275 3.67 16.4975 4.5L3.4975 17.5C2.6675 18.33 2.6675 19.67 3.4975 20.5Z" stroke="white" stroke-width="1.5" stroke-linecap="round" stroke-linejoin="round"/>
<path d="M18.0078 8.98999L15.0078 5.98999" stroke="white" stroke-width="1.5" stroke-linecap="round" stroke-linejoin="round"/>
<path d="M8.5 2.44L10 2L9.56 3.5L10 5L8.5 4.56L7 5L7.44 3.5L7 2L8.5 2.44Z" stroke="white" stroke-linecap="round" stroke-linejoin="round"/>
<path d="M4.5 8.44L6 8L5.56 9.5L6 11L4.5 10.56L3 11L3.44 9.5L3 8L4.5 8.44Z" stroke="white" stroke-linecap="round" stroke-linejoin="round"/>
<path d="M19.5 13.44L21 13L20.56 14.5L21 16L19.5 15.56L18 16L18.44 14.5L18 13L19.5 13.44Z" stroke="white" stroke-linecap="round" stroke-linejoin="round"/>
</svg>
